PathFileType	4	(X/Y/Z)	c:/Users/goper/Files/vsCode/490R/osim_files/A05/A05_Fast_02.trc
DataRate	CameraRate	NumFrames	NumMarkers	Units                	OrigDataRate	OrigDataStartFrame	OrigNumFrames
250.00	250.00	8	36	mm	250.0	2902	3868
                Frame#	Time	LPSIS			LASIS			LTH1			LTH2			LTH3			LTH4			LLFE			LMFE			LSH1			LSH2			LSH3			LSH4			LLMAL			LMMAL			LCAL			LMTP5			LTOE			LMTP1			RPSIS			RASIS			RTH1			RTH2			RTH3			RTH4			RLFE			RMFE			RSH1			RSH2			RSH3			RSH4			RLMAL			RMMAL			RCAL			RMTP1			RTOE			RMTP5		
		X1	Y1	Z1	X2	Y2	Z2	X3	Y3	Z3	X4	Y4	Z4	X5	Y5	Z5	X6	Y6	Z6	X7	Y7	Z7	X8	Y8	Z8	X9	Y9	Z9	X10	Y10	Z10	X11	Y11	Z11	X12	Y12	Z12	X13	Y13	Z13	X14	Y14	Z14	X15	Y15	Z15	X16	Y16	Z16	X17	Y17	Z17	X18	Y18	Z18	X19	Y19	Z19	X20	Y20	Z20	X21	Y21	Z21	X22	Y22	Z22	X23	Y23	Z23	X24	Y24	Z24	X25	Y25	Z25	X26	Y26	Z26	X27	Y27	Z27	X28	Y28	Z28	X29	Y29	Z29	X30	Y30	Z30	X31	Y31	Z31	X32	Y32	Z32	X33	Y33	Z33	X34	Y34	Z34	X35	Y35	Z35	X36	Y36	Z36

2902	11.60400	-512.56909	1009.30194	374.11368	0.00000	0.00000	0.00000	-580.09491	671.69354	508.15942	-597.51764	631.63953	509.42313	-638.44672	686.93372	528.97534	-646.12134	644.60748	524.54926	-676.13324	469.46091	498.61221	-679.44214	469.18674	398.34625	-646.82397	372.42734	505.61066	-648.05823	327.30484	507.67160	0.00000	0.00000	0.00000	-700.75745	323.41040	499.75385	-682.48816	109.19488	497.30875	-680.42535	112.76412	408.50037	-602.80658	57.33948	448.34009	-814.36694	48.71199	520.78638	-861.81445	73.80003	459.48999	-819.54266	64.67935	413.02582	-514.34717	1014.20654	293.26486	-689.05627	970.75385	176.09492	-663.33240	610.31268	87.64898	-675.18579	569.77820	89.33147	-719.91211	624.18756	97.85709	0.00000	0.00000	0.00000	-646.56659	527.55292	96.86432	-684.59320	492.58023	231.64806	-455.50119	371.15973	112.96402	-422.19678	339.04453	124.56775	0.00000	0.00000	0.00000	-453.57309	296.72208	122.52715	-345.74988	261.04807	147.82068	-405.35773	238.05022	228.45438	-291.43314	284.11209	229.83659	-390.74319	96.60023	220.48367	-411.79056	74.71648	167.11378	-351.12158	117.81385	111.54453
2903	11.60800	-516.30127	1010.03754	374.35895	0.00000	0.00000	0.00000	-582.82605	672.52722	509.15805	-599.61884	632.18634	509.61142	-640.77966	687.31940	529.19604	-648.29547	644.91125	524.75623	-677.41461	469.61621	498.69568	-680.58881	469.42361	398.43796	-647.98364	372.18018	506.19049	-648.90088	327.54825	507.74701	0.00000	0.00000	0.00000	-701.46326	323.48590	499.89944	-682.53149	109.23179	497.35452	-680.51855	112.78384	408.52261	-602.98279	57.35912	448.30240	-814.43073	48.62164	520.80176	-861.88586	73.69375	459.49823	-819.65839	64.64626	413.03506	-518.17194	1014.87311	293.46524	-694.03613	972.16693	176.12433	-671.85272	611.43048	87.87442	-683.81494	571.07843	89.58198	-732.02606	621.74243	104.49741	0.00000	0.00000	0.00000	-655.37158	528.83490	97.24178	-692.82574	494.28461	232.16756	-464.21310	373.49081	112.62820	-430.67853	341.55603	124.22080	-505.29129	324.57968	116.49402	-461.82428	299.17572	122.57968	-353.51013	263.81088	147.47379	-411.66986	242.00713	228.90958	-298.34439	286.38211	229.40456	-399.01294	99.51842	219.60628	-418.65195	76.96188	168.40732	-359.78397	120.90246	110.48246
2904	11.61200	-520.08270	1010.81812	374.59424	0.00000	0.00000	0.00000	-585.01935	673.45520	509.05536	-601.69666	632.75714	509.83286	-643.15393	687.67963	529.36090	-650.30377	645.20367	524.95728	-678.55493	469.76743	498.83688	-681.87958	469.59726	398.61240	-647.98083	370.64511	505.85913	-649.56201	327.68643	507.95798	0.00000	0.00000	0.00000	-702.25275	323.53964	499.97662	-682.68152	109.19531	497.36652	-680.60748	112.83076	408.49380	-603.04419	57.36428	448.33179	-814.47003	48.56759	520.79626	-861.96484	73.61563	459.51691	-819.69818	64.58422	413.06088	-522.05145	1015.59686	293.67044	-698.35309	973.10919	176.77464	-680.40924	612.67914	88.06264	-692.11804	571.79333	89.78275	-740.35315	623.30243	105.20073	0.00000	0.00000	0.00000	-664.75311	529.50195	96.85318	-700.74829	495.96326	232.78931	-472.86447	375.73758	112.39134	-439.14755	343.90494	123.95182	0.00000	0.00000	0.00000	-470.17609	301.44995	122.49901	-361.37766	266.71490	147.18205	-418.90466	245.59248	228.55969	-305.40189	288.36798	229.01219	-407.50415	102.68850	219.32030	-429.91888	80.94541	165.46916	-368.92740	124.04234	109.42811
2905	11.61600	-523.85376	1011.52576	374.77258	0.00000	0.00000	0.00000	-587.34064	674.07568	509.31042	-603.77264	633.26251	510.00708	-644.64154	687.82886	530.09991	-652.44769	645.45685	525.16541	-679.75018	469.91623	498.92377	-682.93469	469.78464	398.67386	-649.90149	372.49271	506.54092	-650.31177	327.88788	508.04745	0.00000	0.00000	0.00000	-703.04578	323.57639	500.04791	-682.75037	109.21874	497.39032	-680.63458	112.90152	408.50354	-603.17950	57.38290	448.30191	-814.51459	48.46828	520.80621	-862.03064	73.52192	459.57062	-819.77026	64.53481	413.05875	-525.94519	1016.31128	293.81149	-702.69244	974.03497	177.48831	-688.89661	614.17584	88.32692	-700.90320	573.14819	90.11874	-747.88281	625.77899	104.79192	0.00000	0.00000	0.00000	-673.69299	530.87073	96.93394	-708.70648	497.69717	233.46542	-481.48676	377.81296	112.25694	-447.70401	346.12299	123.67780	-518.24432	326.27267	118.13634	-478.70789	303.48419	122.29327	-369.51981	269.39853	146.96658	-426.79807	248.38708	228.43828	-312.82715	289.25101	228.16774	-416.78296	105.55792	218.43036	-439.04181	86.71934	162.64253	-378.52097	127.05309	108.33781
2906	11.62000	-527.55560	1012.27472	374.92905	0.00000	0.00000	0.00000	-589.55878	674.71655	509.40662	-605.85034	633.79089	510.16922	-647.12817	688.07245	530.34192	-654.57159	645.73236	525.31268	-680.75360	470.08777	499.04083	-684.19543	469.99231	398.81064	-650.68365	372.71234	506.56931	-651.11749	328.12292	508.08603	0.00000	0.00000	0.00000	-703.71173	323.70505	500.18323	-682.81384	109.24568	497.41687	-680.72870	112.90322	408.50183	-603.17181	57.43060	448.29941	-814.51166	48.40107	520.80774	-862.05518	73.39161	459.57129	-819.81464	64.45683	413.06128	-529.78851	1017.03162	293.95169	-706.78827	974.92896	178.21886	-697.40283	615.54242	88.55451	-709.52905	574.68872	90.40321	-756.18726	627.49634	105.63871	0.00000	0.00000	0.00000	-682.67224	532.27844	97.09236	-716.61835	499.43579	234.11287	-490.36450	379.87000	111.96680	-456.38571	348.04282	123.38880	-527.06366	328.22723	117.97351	-487.72610	305.14182	121.77193	-377.94757	271.82019	146.67513	-434.93817	250.86653	228.34320	-320.31958	290.44208	227.81900	-426.33475	108.11630	217.57654	-449.10904	89.75854	161.76370	-388.46686	129.74951	107.31023
2907	11.62400	-531.28876	1013.05316	375.10315	0.00000	0.00000	0.00000	-591.89172	675.10303	509.88760	-607.85065	634.35712	510.32501	-649.47009	688.40094	530.05841	-656.64130	646.05170	525.49982	-681.92157	470.25159	499.15143	-685.26648	470.18457	398.90155	-651.56738	372.93774	506.62576	-651.90698	328.49530	507.96854	0.00000	0.00000	0.00000	-704.38452	323.82443	500.27994	-682.86401	109.28263	497.42194	-680.82465	112.93703	408.47894	-603.24115	57.50103	448.27682	-814.52673	48.36178	520.80878	-862.12238	73.31008	459.60233	-819.85406	64.39618	413.06018	-533.62421	1017.82745	294.03412	-711.05090	975.90729	178.87823	-705.99261	617.23749	88.80380	-718.29083	576.25549	90.78312	-764.48517	629.18622	106.75040	0.00000	0.00000	0.00000	-691.50458	533.66467	97.11668	-724.41077	501.15521	234.84439	-499.08673	381.37332	111.88595	-465.14966	349.75266	123.08321	-536.00360	329.18765	117.15265	-496.50363	306.90048	121.49458	-386.58374	273.69135	146.27129	-443.41025	252.83566	228.05473	-328.18759	291.27322	227.27098	-436.23880	110.36327	216.45850	-459.62402	90.23638	162.74396	-398.60721	132.05289	106.25014
2908	11.62800	-534.92487	1013.83459	375.21213	0.00000	0.00000	0.00000	-593.54510	675.91602	508.99091	-609.90857	634.88800	510.46585	-651.90894	688.85101	530.20685	-658.66809	646.37897	525.65021	-682.97583	470.42996	499.25595	-686.46283	470.36887	398.98859	-651.76196	371.60483	504.55911	-652.52991	328.59952	508.20456	0.00000	0.00000	0.00000	-705.13367	323.94635	500.28992	-682.87805	109.39091	497.46436	-680.95660	113.00986	408.43094	-602.84839	57.86074	448.34155	-814.54950	48.33537	520.81787	-862.18213	73.24858	459.60068	-819.91217	64.32864	413.06433	-537.38416	1018.64319	294.12070	-715.25903	976.88306	179.60402	-714.33514	618.82819	89.11665	-726.91718	577.78076	91.19100	-772.72516	631.00128	107.72572	0.00000	0.00000	0.00000	-700.32599	534.99005	97.31785	-732.01642	502.90851	235.54008	-508.04208	382.92767	111.60254	-474.05460	351.22607	122.72541	0.00000	0.00000	0.00000	-504.77658	308.59637	121.52843	-395.48990	275.13272	145.68440	-451.95239	254.58295	227.86101	-336.32095	291.72925	226.76254	-446.14877	112.01833	215.48538	-469.75421	94.76118	159.70627	-408.86615	133.93221	105.12116
2909	11.63200	-538.68250	1014.55939	375.31827	0.00000	0.00000	0.00000	-595.68671	676.59570	509.15350	-611.94147	635.42432	510.60281	-654.16547	689.17798	530.36877	-660.68396	646.71326	525.78656	-684.09607	470.58130	499.31183	-687.61224	470.53802	399.07007	-652.65137	371.83820	504.56702	-653.20184	328.86975	508.24219	0.00000	0.00000	0.00000	-705.88196	324.06247	500.29639	-682.96802	109.45663	497.44223	-681.01556	113.06463	408.43921	-602.86835	57.99577	448.32626	-814.61469	48.30218	520.80359	-862.23883	73.22083	459.58609	-819.98071	64.31710	413.09933	-541.16516	1019.45056	294.17621	-719.55859	977.80212	180.46379	-722.68866	620.34064	89.64599	-735.87390	580.07379	91.25786	-780.84351	632.82031	108.80061	0.00000	0.00000	0.00000	-708.97937	536.39276	97.61695	-739.81030	504.65710	236.12054	-516.96893	384.14966	111.37472	-483.05185	352.43222	122.32507	-555.29742	333.46655	117.34376	-514.50189	309.54233	121.03293	-404.44193	276.17627	145.12567	-460.75488	255.90668	227.60864	-344.73694	291.84448	226.14421	-457.10413	113.05925	213.67426	-480.69757	94.35760	160.72215	-419.77454	134.98683	104.57198
